<?xml version="1.0" encoding="UTF-8" standalone="no"?>
<!DOCTYPE svg PUBLIC "-//W3C//DTD SVG 1.1//EN"
 "http://www.w3.org/Graphics/SVG/1.1/DTD/svg11.dtd">
<!-- Generated by graphviz version 2.40.1 (20161225.0304)
 -->
<!-- Title: structs Pages: 1 -->
<svg width="1543pt" height="773pt"
 viewBox="0.00 0.00 1542.95 772.60" xmlns="http://www.w3.org/2000/svg" xmlns:xlink="http://www.w3.org/1999/xlink">
<g id="graph0" class="graph" transform="scale(1 1) rotate(0) translate(4 768.6)">
<title>structs</title>
<polygon fill="#ffffff" stroke="transparent" points="-4,4 -4,-768.6 1538.9472,-768.6 1538.9472,4 -4,4"/>
<!-- struct -->
<g id="node1" class="node">
<title>struct</title>
<polygon fill="none" stroke="#000000" points="149.9762,-728.1 149.9762,-764.1 1199.6718,-764.1 1199.6718,-728.1 149.9762,-728.1"/>
<text text-anchor="middle" x="201.3125" y="-741.9" font-family="Times,serif" font-size="14.00" fill="#000000">Wide format(a)</text>
<polyline fill="none" stroke="#000000" points="252.6488,-728.1 252.6488,-764.1 "/>
<text text-anchor="middle" x="328.8813" y="-741.9" font-family="Times,serif" font-size="14.00" fill="#000000">Maximum/Last value(b)</text>
<polyline fill="none" stroke="#000000" points="405.1138,-728.1 405.1138,-764.1 "/>
<text text-anchor="middle" x="480.5749" y="-741.9" font-family="Times,serif" font-size="14.00" fill="#000000">Minimum/First value(c)</text>
<polyline fill="none" stroke="#000000" points="556.036,-728.1 556.036,-764.1 "/>
<text text-anchor="middle" x="659.0757" y="-741.9" font-family="Times,serif" font-size="14.00" fill="#000000">Kept more vulnerable category(d)</text>
<polyline fill="none" stroke="#000000" points="762.1154,-728.1 762.1154,-764.1 "/>
<text text-anchor="middle" x="810.3444" y="-741.9" font-family="Times,serif" font-size="14.00" fill="#000000">Same value(e)</text>
<polyline fill="none" stroke="#000000" points="858.5734,-728.1 858.5734,-764.1 "/>
<text text-anchor="middle" x="922.7365" y="-741.9" font-family="Times,serif" font-size="14.00" fill="#000000">Largest treatment(f)</text>
<polyline fill="none" stroke="#000000" points="986.8996,-728.1 986.8996,-764.1 "/>
<text text-anchor="middle" x="1044.6563" y="-741.9" font-family="Times,serif" font-size="14.00" fill="#000000">Favored dgs.&#45;a(g)</text>
<polyline fill="none" stroke="#000000" points="1102.413,-728.1 1102.413,-764.1 "/>
<text text-anchor="middle" x="1151.0424" y="-741.9" font-family="Times,serif" font-size="14.00" fill="#000000">Sum values(h)</text>
</g>
<!-- struct_f1 -->
<g id="node2" class="node">
<title>struct_f1</title>
<polygon fill="none" stroke="#000000" points="0,-219.9 0,-567.1 139.648,-567.1 139.648,-219.9 0,-219.9"/>
<text text-anchor="middle" x="69.824" y="-550.5" font-family="Times,serif" font-size="14.00" fill="#000000">senda</text>
<polyline fill="none" stroke="#000000" points="0,-542.3 139.648,-542.3 "/>
<text text-anchor="middle" x="69.824" y="-525.7" font-family="Times,serif" font-size="14.00" fill="#000000">rn*</text>
<polyline fill="none" stroke="#000000" points="0,-517.5 139.648,-517.5 "/>
<text text-anchor="middle" x="69.824" y="-500.9" font-family="Times,serif" font-size="14.00" fill="#000000">OBS</text>
<polyline fill="none" stroke="#000000" points="0,-492.7 139.648,-492.7 "/>
<text text-anchor="middle" x="69.824" y="-476.1" font-family="Times,serif" font-size="14.00" fill="#000000">pub_center</text>
<polyline fill="none" stroke="#000000" points="0,-467.9 139.648,-467.9 "/>
<text text-anchor="middle" x="69.824" y="-451.3" font-family="Times,serif" font-size="14.00" fill="#000000">id_centro</text>
<polyline fill="none" stroke="#000000" points="0,-443.1 139.648,-443.1 "/>
<text text-anchor="middle" x="69.824" y="-426.5" font-family="Times,serif" font-size="14.00" fill="#000000">plan_type</text>
<polyline fill="none" stroke="#000000" points="0,-418.3 139.648,-418.3 "/>
<text text-anchor="middle" x="69.824" y="-401.7" font-family="Times,serif" font-size="14.00" fill="#000000">tr_compliance_rec7</text>
<polyline fill="none" stroke="#000000" points="0,-393.5 139.648,-393.5 "/>
<text text-anchor="middle" x="69.824" y="-376.9" font-family="Times,serif" font-size="14.00" fill="#000000">referral_type</text>
<polyline fill="none" stroke="#000000" points="0,-368.7 139.648,-368.7 "/>
<text text-anchor="middle" x="69.824" y="-352.1" font-family="Times,serif" font-size="14.00" fill="#000000">adm_age_rec3*</text>
<polyline fill="none" stroke="#000000" points="0,-343.9 139.648,-343.9 "/>
<text text-anchor="middle" x="69.824" y="-327.3" font-family="Times,serif" font-size="14.00" fill="#000000">adm_date_rec2*</text>
<polyline fill="none" stroke="#000000" points="0,-319.1 139.648,-319.1 "/>
<text text-anchor="middle" x="69.824" y="-302.5" font-family="Times,serif" font-size="14.00" fill="#000000">disch_date_rec6*</text>
<polyline fill="none" stroke="#000000" points="0,-294.3 139.648,-294.3 "/>
<text text-anchor="middle" x="69.824" y="-277.7" font-family="Times,serif" font-size="14.00" fill="#000000">diagnostico_trs_fisico</text>
<polyline fill="none" stroke="#000000" points="0,-269.5 139.648,-269.5 "/>
<text text-anchor="middle" x="69.824" y="-252.9" font-family="Times,serif" font-size="14.00" fill="#000000">otros_probl_at_sm_or</text>
<polyline fill="none" stroke="#000000" points="0,-244.7 139.648,-244.7 "/>
<text text-anchor="middle" x="69.824" y="-228.1" font-family="Times,serif" font-size="14.00" fill="#000000">TABLE_rec</text>
</g>
<!-- struct&#45;&gt;struct_f1 -->
<g id="edge1" class="edge">
<title>struct:f1&#45;&gt;struct_f1</title>
<path fill="none" stroke="#000000" d="M200.824,-728.1C200.824,-699.8638 164.9746,-714.7612 148.824,-691.6 125.1509,-657.6509 108.5713,-617.0232 96.9597,-576.8458"/>
<polygon fill="#000000" stroke="#000000" points="100.325,-575.8836 94.2618,-567.1953 93.5835,-577.7684 100.325,-575.8836"/>
</g>
<!-- struct_f2 -->
<g id="node3" class="node">
<title>struct_f2</title>
<polygon fill="none" stroke="#000000" points="157.9614,-95.9 157.9614,-691.1 363.6866,-691.1 363.6866,-95.9 157.9614,-95.9"/>
<text text-anchor="middle" x="260.824" y="-674.5" font-family="Times,serif" font-size="14.00" fill="#000000">evaluacindelprocesoteraputico</text>
<polyline fill="none" stroke="#000000" points="157.9614,-666.3 363.6866,-666.3 "/>
<text text-anchor="middle" x="260.824" y="-649.7" font-family="Times,serif" font-size="14.00" fill="#000000">eva_consumo</text>
<polyline fill="none" stroke="#000000" points="157.9614,-641.5 363.6866,-641.5 "/>
<text text-anchor="middle" x="260.824" y="-624.9" font-family="Times,serif" font-size="14.00" fill="#000000">eva_fam</text>
<polyline fill="none" stroke="#000000" points="157.9614,-616.7 363.6866,-616.7 "/>
<text text-anchor="middle" x="260.824" y="-600.1" font-family="Times,serif" font-size="14.00" fill="#000000">eva_relinterp</text>
<polyline fill="none" stroke="#000000" points="157.9614,-591.9 363.6866,-591.9 "/>
<text text-anchor="middle" x="260.824" y="-575.3" font-family="Times,serif" font-size="14.00" fill="#000000">eva_ocupacion</text>
<polyline fill="none" stroke="#000000" points="157.9614,-567.1 363.6866,-567.1 "/>
<text text-anchor="middle" x="260.824" y="-550.5" font-family="Times,serif" font-size="14.00" fill="#000000">eva_sm</text>
<polyline fill="none" stroke="#000000" points="157.9614,-542.3 363.6866,-542.3 "/>
<text text-anchor="middle" x="260.824" y="-525.7" font-family="Times,serif" font-size="14.00" fill="#000000">eva_fisica</text>
<polyline fill="none" stroke="#000000" points="157.9614,-517.5 363.6866,-517.5 "/>
<text text-anchor="middle" x="260.824" y="-500.9" font-family="Times,serif" font-size="14.00" fill="#000000">eva_transgnorma</text>
<polyline fill="none" stroke="#000000" points="157.9614,-492.7 363.6866,-492.7 "/>
<text text-anchor="middle" x="260.824" y="-476.1" font-family="Times,serif" font-size="14.00" fill="#000000">dg_global_nec_int_soc_egr_or</text>
<polyline fill="none" stroke="#000000" points="157.9614,-467.9 363.6866,-467.9 "/>
<text text-anchor="middle" x="260.824" y="-451.3" font-family="Times,serif" font-size="14.00" fill="#000000">dg_nec_int_soc_cap_hum_egr_or</text>
<polyline fill="none" stroke="#000000" points="157.9614,-443.1 363.6866,-443.1 "/>
<text text-anchor="middle" x="260.824" y="-426.5" font-family="Times,serif" font-size="14.00" fill="#000000">dg_nec_int_soc_cap_fis_egr_or</text>
<polyline fill="none" stroke="#000000" points="157.9614,-418.3 363.6866,-418.3 "/>
<text text-anchor="middle" x="260.824" y="-401.7" font-family="Times,serif" font-size="14.00" fill="#000000">dg_nec_int_soc_cap_soc_egr_or</text>
<polyline fill="none" stroke="#000000" points="157.9614,-393.5 363.6866,-393.5 "/>
<text text-anchor="middle" x="260.824" y="-376.9" font-family="Times,serif" font-size="14.00" fill="#000000">referral_type</text>
<polyline fill="none" stroke="#000000" points="157.9614,-368.7 363.6866,-368.7 "/>
<text text-anchor="middle" x="260.824" y="-352.1" font-family="Times,serif" font-size="14.00" fill="#000000">ed_attainment</text>
<polyline fill="none" stroke="#000000" points="157.9614,-343.9 363.6866,-343.9 "/>
<text text-anchor="middle" x="260.824" y="-327.3" font-family="Times,serif" font-size="14.00" fill="#000000">adm_disch_reason</text>
<polyline fill="none" stroke="#000000" points="157.9614,-319.1 363.6866,-319.1 "/>
<text text-anchor="middle" x="260.824" y="-302.5" font-family="Times,serif" font-size="14.00" fill="#000000">disch_date_rec6*</text>
<polyline fill="none" stroke="#000000" points="157.9614,-294.3 363.6866,-294.3 "/>
<text text-anchor="middle" x="260.824" y="-277.7" font-family="Times,serif" font-size="14.00" fill="#000000">disch_date_num_rec6</text>
<polyline fill="none" stroke="#000000" points="157.9614,-269.5 363.6866,-269.5 "/>
<text text-anchor="middle" x="260.824" y="-252.9" font-family="Times,serif" font-size="14.00" fill="#000000">min_adm_age_rec3</text>
<polyline fill="none" stroke="#000000" points="157.9614,-244.7 363.6866,-244.7 "/>
<text text-anchor="middle" x="260.824" y="-228.1" font-family="Times,serif" font-size="14.00" fill="#000000">disch_date_num_rec6_trans</text>
<polyline fill="none" stroke="#000000" points="157.9614,-219.9 363.6866,-219.9 "/>
<text text-anchor="middle" x="260.824" y="-203.3" font-family="Times,serif" font-size="14.00" fill="#000000">tr_compliance_rec7</text>
<polyline fill="none" stroke="#000000" points="157.9614,-195.1 363.6866,-195.1 "/>
<text text-anchor="middle" x="260.824" y="-178.5" font-family="Times,serif" font-size="14.00" fill="#000000">TABLE*</text>
<polyline fill="none" stroke="#000000" points="157.9614,-170.3 363.6866,-170.3 "/>
<text text-anchor="middle" x="260.824" y="-153.7" font-family="Times,serif" font-size="14.00" fill="#000000">plan_type*</text>
<polyline fill="none" stroke="#000000" points="157.9614,-145.5 363.6866,-145.5 "/>
<text text-anchor="middle" x="260.824" y="-128.9" font-family="Times,serif" font-size="14.00" fill="#000000">numero_de_hijos**</text>
<polyline fill="none" stroke="#000000" points="157.9614,-120.7 363.6866,-120.7 "/>
<text text-anchor="middle" x="260.824" y="-104.1" font-family="Times,serif" font-size="14.00" fill="#000000">num_hijos_trat_res**</text>
</g>
<!-- struct&#45;&gt;struct_f2 -->
<g id="edge2" class="edge">
<title>struct:f2&#45;&gt;struct_f2</title>
<path fill="none" stroke="#000000" d="M328.824,-728.1C328.824,-719.2709 328.5938,-710.3364 328.1602,-701.3389"/>
<polygon fill="#000000" stroke="#000000" points="331.6435,-700.9427 327.5857,-691.1558 324.6546,-701.3371 331.6435,-700.9427"/>
</g>
<!-- struct_f3 -->
<g id="node4" class="node">
<title>struct_f3</title>
<polygon fill="none" stroke="#000000" points="382.1213,-343.9 382.1213,-443.1 515.5267,-443.1 515.5267,-343.9 382.1213,-343.9"/>
<text text-anchor="middle" x="448.824" y="-426.5" font-family="Times,serif" font-size="14.00" fill="#000000">adm_motive</text>
<polyline fill="none" stroke="#000000" points="382.1213,-418.3 515.5267,-418.3 "/>
<text text-anchor="middle" x="448.824" y="-401.7" font-family="Times,serif" font-size="14.00" fill="#000000">adm_date_num_rec2</text>
<polyline fill="none" stroke="#000000" points="382.1213,-393.5 515.5267,-393.5 "/>
<text text-anchor="middle" x="448.824" y="-376.9" font-family="Times,serif" font-size="14.00" fill="#000000">adm_date_rec2*</text>
<polyline fill="none" stroke="#000000" points="382.1213,-368.7 515.5267,-368.7 "/>
<text text-anchor="middle" x="448.824" y="-352.1" font-family="Times,serif" font-size="14.00" fill="#000000">adm_age_rec3*</text>
</g>
<!-- struct&#45;&gt;struct_f3 -->
<g id="edge3" class="edge">
<title>struct:f3&#45;&gt;struct_f3</title>
<path fill="none" stroke="#000000" d="M480.824,-728.1C480.824,-631.5196 467.4492,-519.9676 457.9932,-453.1692"/>
<polygon fill="#000000" stroke="#000000" points="461.4541,-452.6459 456.5703,-443.2438 454.5249,-453.6393 461.4541,-452.6459"/>
</g>
<!-- struct_f4 -->
<g id="node5" class="node">
<title>struct_f4</title>
<polygon fill="none" stroke="#000000" points="533.5322,-145.5 533.5322,-641.5 736.1158,-641.5 736.1158,-145.5 533.5322,-145.5"/>
<text text-anchor="middle" x="634.824" y="-624.9" font-family="Times,serif" font-size="14.00" fill="#000000">dg_global_nec_int_soc_or</text>
<polyline fill="none" stroke="#000000" points="533.5322,-616.7 736.1158,-616.7 "/>
<text text-anchor="middle" x="634.824" y="-600.1" font-family="Times,serif" font-size="14.00" fill="#000000">dg_nec_int_soc_cap_hum_or</text>
<polyline fill="none" stroke="#000000" points="533.5322,-591.9 736.1158,-591.9 "/>
<text text-anchor="middle" x="634.824" y="-575.3" font-family="Times,serif" font-size="14.00" fill="#000000">dg_nec_int_soc_cap_fis_or</text>
<polyline fill="none" stroke="#000000" points="533.5322,-567.1 736.1158,-567.1 "/>
<text text-anchor="middle" x="634.824" y="-550.5" font-family="Times,serif" font-size="14.00" fill="#000000">dg_nec_int_soc_cap_soc_or</text>
<polyline fill="none" stroke="#000000" points="533.5322,-542.3 736.1158,-542.3 "/>
<text text-anchor="middle" x="634.824" y="-525.7" font-family="Times,serif" font-size="14.00" fill="#000000">usuario_tribunal_trat_droga</text>
<polyline fill="none" stroke="#000000" points="533.5322,-517.5 736.1158,-517.5 "/>
<text text-anchor="middle" x="634.824" y="-500.9" font-family="Times,serif" font-size="14.00" fill="#000000">tiene_menores_de_edad_a_cargo</text>
<polyline fill="none" stroke="#000000" points="533.5322,-492.7 736.1158,-492.7 "/>
<text text-anchor="middle" x="634.824" y="-476.1" font-family="Times,serif" font-size="14.00" fill="#000000">precariedad_vivienda</text>
<polyline fill="none" stroke="#000000" points="533.5322,-467.9 736.1158,-467.9 "/>
<text text-anchor="middle" x="634.824" y="-451.3" font-family="Times,serif" font-size="14.00" fill="#000000">biopsych_comp</text>
<polyline fill="none" stroke="#000000" points="533.5322,-443.1 736.1158,-443.1 "/>
<text text-anchor="middle" x="634.824" y="-426.5" font-family="Times,serif" font-size="14.00" fill="#000000">sub_dep_icd10_status</text>
<polyline fill="none" stroke="#000000" points="533.5322,-418.3 736.1158,-418.3 "/>
<text text-anchor="middle" x="634.824" y="-401.7" font-family="Times,serif" font-size="14.00" fill="#000000">num_trat_ant</text>
<polyline fill="none" stroke="#000000" points="533.5322,-393.5 736.1158,-393.5 "/>
<text text-anchor="middle" x="634.824" y="-376.9" font-family="Times,serif" font-size="14.00" fill="#000000">fecha_ultimo_tratamiento</text>
<polyline fill="none" stroke="#000000" points="533.5322,-368.7 736.1158,-368.7 "/>
<text text-anchor="middle" x="634.824" y="-352.1" font-family="Times,serif" font-size="14.00" fill="#000000">pregnant</text>
<polyline fill="none" stroke="#000000" points="533.5322,-343.9 736.1158,-343.9 "/>
<text text-anchor="middle" x="634.824" y="-327.3" font-family="Times,serif" font-size="14.00" fill="#000000">pregnant_disch</text>
<polyline fill="none" stroke="#000000" points="533.5322,-319.1 736.1158,-319.1 "/>
<text text-anchor="middle" x="634.824" y="-302.5" font-family="Times,serif" font-size="14.00" fill="#000000">laboral_ingresos</text>
<polyline fill="none" stroke="#000000" points="533.5322,-294.3 736.1158,-294.3 "/>
<text text-anchor="middle" x="634.824" y="-277.7" font-family="Times,serif" font-size="14.00" fill="#000000">servicios_basicos_95</text>
<polyline fill="none" stroke="#000000" points="533.5322,-269.5 736.1158,-269.5 "/>
<text text-anchor="middle" x="634.824" y="-252.9" font-family="Times,serif" font-size="14.00" fill="#000000">perso_dormitorio_vivienda</text>
<polyline fill="none" stroke="#000000" points="533.5322,-244.7 736.1158,-244.7 "/>
<text text-anchor="middle" x="634.824" y="-228.1" font-family="Times,serif" font-size="14.00" fill="#000000">identidad_de_genero</text>
<polyline fill="none" stroke="#000000" points="533.5322,-219.9 736.1158,-219.9 "/>
<text text-anchor="middle" x="634.824" y="-203.3" font-family="Times,serif" font-size="14.00" fill="#000000">orientacion_sexual</text>
<polyline fill="none" stroke="#000000" points="533.5322,-195.1 736.1158,-195.1 "/>
<text text-anchor="middle" x="634.824" y="-178.5" font-family="Times,serif" font-size="14.00" fill="#000000">opcion_discapacidad</text>
<polyline fill="none" stroke="#000000" points="533.5322,-170.3 736.1158,-170.3 "/>
<text text-anchor="middle" x="634.824" y="-153.7" font-family="Times,serif" font-size="14.00" fill="#000000">discapacidad</text>
</g>
<!-- struct&#45;&gt;struct_f4 -->
<g id="edge4" class="edge">
<title>struct:f4&#45;&gt;struct_f4</title>
<path fill="none" stroke="#000000" d="M658.824,-728.1C658.824,-703.421 658.1664,-677.7443 657.0689,-652.0764"/>
<polygon fill="#000000" stroke="#000000" points="660.5552,-651.69 656.6092,-641.8574 653.5623,-652.0047 660.5552,-651.69"/>
</g>
<!-- struct_f5 -->
<g id="node6" class="node">
<title>struct_f5</title>
<polygon fill="none" stroke="#000000" points="754.1234,-207.5 754.1234,-579.5 915.5246,-579.5 915.5246,-207.5 754.1234,-207.5"/>
<text text-anchor="middle" x="834.824" y="-562.9" font-family="Times,serif" font-size="14.00" fill="#000000">hash_key</text>
<polyline fill="none" stroke="#000000" points="754.1234,-554.7 915.5246,-554.7 "/>
<text text-anchor="middle" x="834.824" y="-538.1" font-family="Times,serif" font-size="14.00" fill="#000000">first_sub_used</text>
<polyline fill="none" stroke="#000000" points="754.1234,-529.9 915.5246,-529.9 "/>
<text text-anchor="middle" x="834.824" y="-513.3" font-family="Times,serif" font-size="14.00" fill="#000000">yr_block</text>
<polyline fill="none" stroke="#000000" points="754.1234,-505.1 915.5246,-505.1 "/>
<text text-anchor="middle" x="834.824" y="-488.5" font-family="Times,serif" font-size="14.00" fill="#000000">def_date</text>
<polyline fill="none" stroke="#000000" points="754.1234,-480.3 915.5246,-480.3 "/>
<text text-anchor="middle" x="834.824" y="-463.7" font-family="Times,serif" font-size="14.00" fill="#000000">ethnicity_c1_c6_historic</text>
<polyline fill="none" stroke="#000000" points="754.1234,-455.5 915.5246,-455.5 "/>
<text text-anchor="middle" x="834.824" y="-438.9" font-family="Times,serif" font-size="14.00" fill="#000000">sex_rec</text>
<polyline fill="none" stroke="#000000" points="754.1234,-430.7 915.5246,-430.7 "/>
<text text-anchor="middle" x="834.824" y="-414.1" font-family="Times,serif" font-size="14.00" fill="#000000">nationality_cons</text>
<polyline fill="none" stroke="#000000" points="754.1234,-405.9 915.5246,-405.9 "/>
<text text-anchor="middle" x="834.824" y="-389.3" font-family="Times,serif" font-size="14.00" fill="#000000">sus_ini_1</text>
<polyline fill="none" stroke="#000000" points="754.1234,-381.1 915.5246,-381.1 "/>
<text text-anchor="middle" x="834.824" y="-364.5" font-family="Times,serif" font-size="14.00" fill="#000000">sus_ini_2</text>
<polyline fill="none" stroke="#000000" points="754.1234,-356.3 915.5246,-356.3 "/>
<text text-anchor="middle" x="834.824" y="-339.7" font-family="Times,serif" font-size="14.00" fill="#000000">sus_ini_3</text>
<polyline fill="none" stroke="#000000" points="754.1234,-331.5 915.5246,-331.5 "/>
<text text-anchor="middle" x="834.824" y="-314.9" font-family="Times,serif" font-size="14.00" fill="#000000">sus_ini_mod_mvv</text>
<polyline fill="none" stroke="#000000" points="754.1234,-306.7 915.5246,-306.7 "/>
<text text-anchor="middle" x="834.824" y="-290.1" font-family="Times,serif" font-size="14.00" fill="#000000">LB_age_subs_onset_rec2</text>
<polyline fill="none" stroke="#000000" points="754.1234,-281.9 915.5246,-281.9 "/>
<text text-anchor="middle" x="834.824" y="-265.3" font-family="Times,serif" font-size="14.00" fill="#000000">UB_age_subs_onset_rec2</text>
<polyline fill="none" stroke="#000000" points="754.1234,-257.1 915.5246,-257.1 "/>
<text text-anchor="middle" x="834.824" y="-240.5" font-family="Times,serif" font-size="14.00" fill="#000000">age_subs_onset_rec2</text>
<polyline fill="none" stroke="#000000" points="754.1234,-232.3 915.5246,-232.3 "/>
<text text-anchor="middle" x="834.824" y="-215.7" font-family="Times,serif" font-size="14.00" fill="#000000">birth_date_rec</text>
</g>
<!-- struct&#45;&gt;struct_f5 -->
<g id="edge5" class="edge">
<title>struct:f5&#45;&gt;struct_f5</title>
<path fill="none" stroke="#000000" d="M810.824,-728.1C810.824,-683.2954 812.9914,-635.2023 816.0236,-589.8434"/>
<polygon fill="#000000" stroke="#000000" points="819.5335,-589.8175 816.7258,-579.6015 812.5499,-589.3386 819.5335,-589.8175"/>
</g>
<!-- struct_f6 -->
<g id="node7" class="node">
<title>struct_f6</title>
<polygon fill="none" stroke="#000000" points="933.4095,-195.1 933.4095,-591.9 1114.2385,-591.9 1114.2385,-195.1 933.4095,-195.1"/>
<text text-anchor="middle" x="1023.824" y="-575.3" font-family="Times,serif" font-size="14.00" fill="#000000">rubro_trabaja</text>
<polyline fill="none" stroke="#000000" points="933.4095,-567.1 1114.2385,-567.1 "/>
<text text-anchor="middle" x="1023.824" y="-550.5" font-family="Times,serif" font-size="14.00" fill="#000000">con_quien_vive</text>
<polyline fill="none" stroke="#000000" points="933.4095,-542.3 1114.2385,-542.3 "/>
<text text-anchor="middle" x="1023.824" y="-525.7" font-family="Times,serif" font-size="14.00" fill="#000000">primary_sub</text>
<polyline fill="none" stroke="#000000" points="933.4095,-517.5 1114.2385,-517.5 "/>
<text text-anchor="middle" x="1023.824" y="-500.9" font-family="Times,serif" font-size="14.00" fill="#000000">second_sub1</text>
<polyline fill="none" stroke="#000000" points="933.4095,-492.7 1114.2385,-492.7 "/>
<text text-anchor="middle" x="1023.824" y="-476.1" font-family="Times,serif" font-size="14.00" fill="#000000">second_sub2</text>
<polyline fill="none" stroke="#000000" points="933.4095,-467.9 1114.2385,-467.9 "/>
<text text-anchor="middle" x="1023.824" y="-451.3" font-family="Times,serif" font-size="14.00" fill="#000000">second_sub3</text>
<polyline fill="none" stroke="#000000" points="933.4095,-443.1 1114.2385,-443.1 "/>
<text text-anchor="middle" x="1023.824" y="-426.5" font-family="Times,serif" font-size="14.00" fill="#000000">marital_status</text>
<polyline fill="none" stroke="#000000" points="933.4095,-418.3 1114.2385,-418.3 "/>
<text text-anchor="middle" x="1023.824" y="-401.7" font-family="Times,serif" font-size="14.00" fill="#000000">occupation_condition</text>
<polyline fill="none" stroke="#000000" points="933.4095,-393.5 1114.2385,-393.5 "/>
<text text-anchor="middle" x="1023.824" y="-376.9" font-family="Times,serif" font-size="14.00" fill="#000000">occupation_status</text>
<polyline fill="none" stroke="#000000" points="933.4095,-368.7 1114.2385,-368.7 "/>
<text text-anchor="middle" x="1023.824" y="-352.1" font-family="Times,serif" font-size="14.00" fill="#000000">tenure_status_household</text>
<polyline fill="none" stroke="#000000" points="933.4095,-343.9 1114.2385,-343.9 "/>
<text text-anchor="middle" x="1023.824" y="-327.3" font-family="Times,serif" font-size="14.00" fill="#000000">prim_sub_freq</text>
<polyline fill="none" stroke="#000000" points="933.4095,-319.1 1114.2385,-319.1 "/>
<text text-anchor="middle" x="1023.824" y="-302.5" font-family="Times,serif" font-size="14.00" fill="#000000">prim_sub_route</text>
<polyline fill="none" stroke="#000000" points="933.4095,-294.3 1114.2385,-294.3 "/>
<text text-anchor="middle" x="1023.824" y="-277.7" font-family="Times,serif" font-size="14.00" fill="#000000">LB_age_primary_onset_rec2</text>
<polyline fill="none" stroke="#000000" points="933.4095,-269.5 1114.2385,-269.5 "/>
<text text-anchor="middle" x="1023.824" y="-252.9" font-family="Times,serif" font-size="14.00" fill="#000000">UB_age_primary_onset_rec2</text>
<polyline fill="none" stroke="#000000" points="933.4095,-244.7 1114.2385,-244.7 "/>
<text text-anchor="middle" x="1023.824" y="-228.1" font-family="Times,serif" font-size="14.00" fill="#000000">age_primary_onset_rec2</text>
<polyline fill="none" stroke="#000000" points="933.4095,-219.9 1114.2385,-219.9 "/>
<text text-anchor="middle" x="1023.824" y="-203.3" font-family="Times,serif" font-size="14.00" fill="#000000">tipo_de_vivienda</text>
</g>
<!-- struct&#45;&gt;struct_f6 -->
<g id="edge6" class="edge">
<title>struct:f6&#45;&gt;struct_f6</title>
<path fill="none" stroke="#000000" d="M922.824,-728.1C922.824,-701.3233 934.8283,-653.2405 950.5599,-601.7248"/>
<polygon fill="#000000" stroke="#000000" points="953.9349,-602.6575 953.5387,-592.0701 947.246,-600.5938 953.9349,-602.6575"/>
</g>
<!-- struct_f8 -->
<g id="node8" class="node">
<title>struct_f8</title>
<polygon fill="none" stroke="#000000" points="1132.4306,-294.3 1132.4306,-492.7 1289.2174,-492.7 1289.2174,-294.3 1132.4306,-294.3"/>
<text text-anchor="middle" x="1210.824" y="-476.1" font-family="Times,serif" font-size="14.00" fill="#000000">mod_psiq_cie_10</text>
<polyline fill="none" stroke="#000000" points="1132.4306,-467.9 1289.2174,-467.9 "/>
<text text-anchor="middle" x="1210.824" y="-451.3" font-family="Times,serif" font-size="14.00" fill="#000000">mod_psiq_dsm_iv</text>
<polyline fill="none" stroke="#000000" points="1132.4306,-443.1 1289.2174,-443.1 "/>
<text text-anchor="middle" x="1210.824" y="-426.5" font-family="Times,serif" font-size="14.00" fill="#000000">diagnostico_trs_fisico</text>
<polyline fill="none" stroke="#000000" points="1132.4306,-418.3 1289.2174,-418.3 "/>
<text text-anchor="middle" x="1210.824" y="-401.7" font-family="Times,serif" font-size="14.00" fill="#000000">otros_probl_at_sm_or</text>
<polyline fill="none" stroke="#000000" points="1132.4306,-393.5 1289.2174,-393.5 "/>
<text text-anchor="middle" x="1210.824" y="-376.9" font-family="Times,serif" font-size="14.00" fill="#000000">dg_psiq_cie_10_instudy</text>
<polyline fill="none" stroke="#000000" points="1132.4306,-368.7 1289.2174,-368.7 "/>
<text text-anchor="middle" x="1210.824" y="-352.1" font-family="Times,serif" font-size="14.00" fill="#000000">dg_psiq_cie_10_dg</text>
<polyline fill="none" stroke="#000000" points="1132.4306,-343.9 1289.2174,-343.9 "/>
<text text-anchor="middle" x="1210.824" y="-327.3" font-family="Times,serif" font-size="14.00" fill="#000000">dg_psiq_dsm_iv_instudy</text>
<polyline fill="none" stroke="#000000" points="1132.4306,-319.1 1289.2174,-319.1 "/>
<text text-anchor="middle" x="1210.824" y="-302.5" font-family="Times,serif" font-size="14.00" fill="#000000">dg_psiq_dsm_iv_dg</text>
</g>
<!-- struct&#45;&gt;struct_f8 -->
<g id="edge7" class="edge">
<title>struct:f8&#45;&gt;struct_f8</title>
<path fill="none" stroke="#000000" d="M1044.824,-728.1C1044.824,-689.8255 1097.873,-720.6238 1122.824,-691.6 1167.8923,-639.1751 1189.8913,-564.5612 1200.6238,-503.098"/>
<polygon fill="#000000" stroke="#000000" points="1204.1215,-503.4008 1202.3135,-492.9614 1197.2168,-502.2498 1204.1215,-503.4008"/>
</g>
<!-- struct_f12 -->
<g id="node10" class="node">
<title>struct_f12</title>
<polygon fill="none" stroke="#000000" points="1306.8885,-375.5 1306.8885,-411.5 1368.7595,-411.5 1368.7595,-375.5 1306.8885,-375.5"/>
<text text-anchor="middle" x="1337.824" y="-389.4" font-family="Times,serif" font-size="14.00" fill="#000000">dit_rec6</text>
</g>
<!-- struct&#45;&gt;struct_f12 -->
<g id="edge8" class="edge">
<title>struct:f12&#45;&gt;struct_f12</title>
<path fill="none" stroke="#000000" d="M1199.824,-746.1C1249.6618,-746.1 1269.7524,-732.7799 1297.824,-691.6 1355.2967,-607.2898 1348.3363,-478.0049 1341.8215,-421.5262"/>
<polygon fill="#000000" stroke="#000000" points="1345.288,-421.0387 1340.5848,-411.545 1338.3411,-421.8995 1345.288,-421.0387"/>
</g>
<!-- g -->
<g id="node9" class="node">
<title>g</title>
<polygon fill="none" stroke="#ffffff" points="1140.7008,-.5 1140.7008,-58.9 1534.9472,-58.9 1534.9472,-.5 1140.7008,-.5"/>
<text text-anchor="start" x="1148.7008" y="-42.3" font-family="Times,serif" font-size="14.00" fill="#000000">* Some variables were transformed in different formats);</text>
<text text-anchor="start" x="1148.7008" y="-25.5" font-family="Times,serif" font-size="14.00" fill="#000000">** If not available/decreasing, replaced with the last/max available;</text>
<text text-anchor="middle" x="1337.824" y="-8.7" font-family="Times,serif" font-size="14.00" fill="#000000"> † In chains, if last is inconsistent, use most vulnerable value</text>
</g>
<!-- struct_f12&#45;&gt;g -->
<g id="edge9" class="edge">
<title>struct_f12&#45;&gt;g</title>
<path fill="none" stroke="#ffffff" d="M1337.824,-375.4591C1337.824,-316.8193 1337.824,-131.2277 1337.824,-58.9293"/>
</g>
</g>
</svg>

